<?xml version="1.0" encoding="UTF-8"?>
<svg width="112px" height="112px" viewBox="0 0 112 112" version="1.1" xmlns="http://www.w3.org/2000/svg" xmlns:xlink="http://www.w3.org/1999/xlink">
    <title>Group</title>
    <g id="Mobile" stroke="none" stroke-width="1" fill="none" fill-rule="evenodd">
        <g id="Gift-Card---Order-Failed" transform="translate(-133.000000, -152.000000)" stroke="#A82154">
            <g id="Group" transform="translate(99.000000, 150.000000)">
                <g id="Group" transform="translate(29.000000, 0.000000)">
                    <g transform="translate(10.105263, 7.565217)">
                        <g id="Group-7" stroke-linecap="round" stroke-linejoin="round" stroke-width="10.1052632">
                            <g id="Group-4">
                                <path d="M71.6018374,4.58384725 C65.1867883,1.640115 58.0475802,0 50.5263158,0 C22.6212264,0 0,22.5802459 0,50.4347826 C0,78.2893193 22.6212264,100.869565 50.5263158,100.869565 C78.4289081,100.869565 101.052632,78.2893193 101.052632,50.4347826 C101.052632,45.3798385 100.305999,40.5018673 98.9201084,35.8980794" id="Stroke-3"></path>
                            </g>
                        </g>
                        <path d="M53.0091753,17.6247129 C53.7109164,17.6253471 54.3457653,17.9081042 54.8050964,18.3666061 C55.2631736,18.8238566 55.5462792,19.455528 55.5469118,20.1533202 L55.5469118,20.1533202 L55.6018317,80.7299792 C55.6024607,81.4238132 55.3217984,82.0522169 54.8675204,82.5073195 C54.4132423,82.962422 53.7853485,83.2442233 53.0960804,83.2448523 C52.3922529,83.2442183 51.7582909,82.9622254 51.2996346,82.5035691 C50.8421393,82.0460738 50.5589842,81.4142384 50.5583514,80.7162451 L50.5583514,80.7162451 L50.5034315,20.139586 C50.5028024,19.445752 50.7834647,18.8173483 51.2377428,18.3622458 C51.6920208,17.9071432 52.3199146,17.625342 53.0091753,17.6247129 Z" id="Rectangle" stroke-width="5.05263158" fill="#A82154" transform="translate(53.052632, 50.434783) rotate(-45.000000) translate(-53.052632, -50.434783) "></path>
                        <path d="M53.0869586,17.6247129 C53.7807926,17.6240839 54.4091963,17.9047462 54.8642989,18.3590242 C55.3194014,18.8133023 55.6012027,19.4411961 55.6018317,20.1304496 L55.6018317,20.1304496 L55.5469118,80.7162451 C55.546279,81.4142384 55.2631238,82.0460738 54.8056286,82.5035691 C54.3481333,82.9610643 53.7162979,83.2442195 53.0183046,83.2448523 C52.3244706,83.2454813 51.6960668,82.964819 51.2409643,82.510541 C50.7858618,82.0562629 50.5040605,81.4283691 50.5034315,80.7391156 L50.5034315,80.7391156 L50.5583514,20.1533202 C50.5589842,19.4553268 50.8421393,18.8234914 51.2996346,18.3659962 C51.7571299,17.9085009 52.3889653,17.6253457 53.0869586,17.6247129 Z" id="Rectangle-Copy" stroke-width="5.05263158" fill="#A82154" transform="translate(53.052632, 50.434783) rotate(-315.000000) translate(-53.052632, -50.434783) "></path>
                    </g>
                </g>
            </g>
        </g>
    </g>
</svg>