<svg width="122" height="122" viewBox="0 0 122 122" xmlns="http://www.w3.org/2000/svg">
    <defs>
        <linearGradient x1="0%" y1="0%" x2="100%" y2="100%" id="xg9de2pmqa">
            <stop stop-color="#D6FFE0" offset="0%"/>
            <stop stop-color="#F5F5F5" offset="100%"/>
        </linearGradient>
        <linearGradient x1="93.201%" y1="86.35%" x2="14.482%" y2="20.533%" id="jmvj5p375b">
            <stop stop-color="#FFE2C5" offset="0%"/>
            <stop stop-color="#F68B1F" offset="100%"/>
        </linearGradient>
    </defs>
    <g fill="none" fill-rule="evenodd">
        <circle fill="url(#xg9de2pmqa)" cx="61" cy="61" r="61"/>
        <path d="M55.714 29.44A32.002 32.002 0 0 1 92.8 64.564a5.999 5.999 0 0 0-3.435-2.21l-4.405-1v-.35a23.965 23.965 0 1 0-23.966 23.96h.255l1 4.498a6.003 6.003 0 0 0 2.1 3.36A32.001 32.001 0 0 1 38.45 38.298a31.999 31.999 0 0 1 17.265-8.858zm6.547 30.93c.153 0 .306.017.455.05l25.725 5.856a1.998 1.998 0 0 1 1 3.38l-7.05 7.05 9.405 9.404a4.02 4.02 0 0 1-5.685 5.686l-9.405-9.405-7.16 7.16a2 2 0 0 1-1.41.59 1.998 1.998 0 0 1-1.97-1.565l-5.855-25.75a2 2 0 0 1 1.95-2.455zm-1.71-15.421A16.07 16.07 0 0 1 77 59.555l-8.755-2a8.032 8.032 0 0 0-12.878-2.29 8.03 8.03 0 0 0 2.043 12.92l2.005 8.82a16.07 16.07 0 0 1 1.136-32.056z" fill="url(#jmvj5p375b)"/>
    </g>
</svg>
