<?xml version="1.0" encoding="UTF-8"?>
<svg width="149px" height="149px" viewBox="0 0 149 149" version="1.1" xmlns="http://www.w3.org/2000/svg" xmlns:xlink="http://www.w3.org/1999/xlink">
    <title>Group</title>
    <g id="Home" stroke="none" stroke-width="1" fill="none" fill-rule="evenodd">
        <g id="Forgot-PW---Success" transform="translate(-886.000000, -221.000000)">
            <g id="Group-6" transform="translate(739.000000, 218.000000)">
                <g id="Group" transform="translate(141.000000, 0.000000)">
                    <g id="Group-7" transform="translate(13.473684, 10.108696)" stroke="#12A076" stroke-linecap="round" stroke-linejoin="round" stroke-width="13.4736842">
                        <g id="Group-4">
                            <path d="M95.4691166,6.12496831 C86.9157177,2.19153298 77.3967735,0 67.3684211,0 C30.1616352,0 0,30.1718803 0,67.3913043 C0,104.610728 30.1616352,134.782609 67.3684211,134.782609 C104.571877,134.782609 134.736842,104.610728 134.736842,67.3913043 C134.736842,60.6368532 133.741332,54.1188744 131.893478,47.9672613" id="Stroke-3"></path>
                        </g>
                    </g>
                    <path d="M106.928969,-0.117174166 L106.930939,-0.117173835 C110.650709,-0.114282264 113.666023,2.90103109 113.668914,6.62080104 L113.687326,116.118273 C113.690217,119.838927 110.674538,122.855621 106.953882,122.856247 C106.953127,122.856247 106.952372,122.856247 106.951617,122.853982 L106.949647,122.853981 C103.229877,122.85109 100.214564,119.835776 100.211672,116.116006 L100.19326,6.61853498 C100.190369,2.89788026 103.206049,-0.118813826 106.926704,-0.11943946 C106.927459,-0.119439587 106.928214,-0.119439587 106.928969,-0.117174166 Z" id="Rectangle" fill="#12A076" transform="translate(106.940293, 61.368404) rotate(-319.000000) translate(-106.940293, -61.368404) "></path>
                    <path d="M57.2680148,65.6591107 L57.2703033,65.6591103 C60.990958,65.656191 64.0076571,68.6718657 64.0082889,72.3925208 C64.008289,72.3932835 64.008289,72.3940461 64.0060013,72.3948084 L63.9999941,107.771525 C63.9970741,111.491286 60.9817694,114.506591 57.2620081,114.509511 L57.2597196,114.509511 C53.5390649,114.512431 50.5223658,111.496756 50.521734,107.776101 C50.5217339,107.775338 50.5217339,107.774575 50.5240215,107.773813 L50.5300288,72.3970967 C50.5329488,68.6773355 53.5482535,65.6620307 57.2680148,65.6591107 Z" id="Rectangle-Copy" fill="#12A076" transform="translate(57.265011, 90.084311) rotate(-45.000000) translate(-57.265011, -90.084311) "></path>
                </g>
            </g>
        </g>
    </g>
</svg>